# xmcd
#
# Track frame offsets:
#	150
#	12804
#	25518
#	38423
#	50388
#	61670
#	74862
#	91231
#	104427
#	116263
#	128752
#	145864
#	160219
#	177994
#	190284
#	202033
#	216120
#	227974
#	240965
#	257477
#	273076
#	285562
#
# Disc length: 3966 seconds
#
# Revision: 2
# Processed by: cddbd v1.5.2PL0 Copyright (c) Steve Scherf et al.
# Submitted via: EasyCDDAExtractor 12.0.1.1
#
DISCID=2a0f7c16
DTITLE=nejlepsi pisnicky 20 stoleti - Sedesata leta
DYEAR=0
DGENRE=Blues
TTITLE0=Red Roses For A Blue Lady
TTITLE1=All Alone Am I
TTITLE2=People Get Ready
TTITLE3=Crying In The Chapel
TTITLE4=Hey Paula
TTITLE5=Spanish Harlem
TTITLE6=Romeo
TTITLE7=Harbour Lights
TTITLE8=As Usual
TTITLE9=A World Without Love
TTITLE10=Michelle
TTITLE11=In The Ghetto
TTITLE12=Spanish Eyes
TTITLE13=Sealed With A Kiss
TTITLE14=Roses Are Red
TTITLE15=It Must Be Him
TTITLE16=Merci, Chérie
TTITLE17=If I Only Had Time
TTITLE18=To Love Somebody
TTITLE19=Rain And Tears
TTITLE20=Tell Laura I Love Her
TTITLE21=Save The Last Dance For Me
EXTD=
EXTT0=
EXTT1=
EXTT2=
EXTT3=
EXTT4=
EXTT5=
EXTT6=
EXTT7=
EXTT8=
EXTT9=
EXTT10=
EXTT11=
EXTT12=
EXTT13=
EXTT14=
EXTT15=
EXTT16=
EXTT17=
EXTT18=
EXTT19=
EXTT20=
EXTT21=
PLAYORDER=
